<svg width="600" height="400" xmlns="http://www.w3.org/2000/svg">
  <!-- Bakgrund -->
  <rect width="600" height="400" fill="#2a2a2a"/>
  
  <!-- Spelskärm -->
  <rect x="50" y="50" width="500" height="300" rx="10" fill="#121212" stroke="#444" stroke-width="2"/>
  
  <!-- Spelkaraktär -->
  <circle cx="300" cy="200" r="40" fill="#3498db"/>
  <circle cx="290" cy="190" r="8" fill="white"/>
  <circle cx="310" cy="190" r="8" fill="white"/>
  <path d="M285 215 Q300 230 315 215" stroke="white" stroke-width="3" fill="none"/>
  
  <!-- Spellandskap -->
  <rect x="100" y="250" width="400" height="50" rx="5" fill="#27ae60"/>
  <rect x="150" y="200" width="100" height="50" rx="5" fill="#8e44ad"/>
  <rect x="350" y="180" width="120" height="70" rx="5" fill="#e74c3c"/>
  
  <!-- Spelelement -->
  <circle cx="150" cy="150" r="15" fill="#f1c40f"/>
  <circle cx="200" cy="120" r="10" fill="#f1c40f"/>
  <circle cx="250" cy="140" r="12" fill="#f1c40f"/>
  
  <!-- HUD-element -->
  <rect x="70" y="70" width="100" height="20" rx="5" fill="#34495e"/>
  <rect x="75" y="75" width="60" height="10" rx="3" fill="#e74c3c"/>
  
  <rect x="430" y="70" width="100" height="20" rx="5" fill="#34495e"/>
  <text x="440" y="85" font-family="Arial" font-size="12" fill="white">SCORE: 1250</text>
</svg>